<svg width="80" height="80" viewBox="0 0 80 80" fill="none" xmlns="http://www.w3.org/2000/svg">
<circle cx="40" cy="40" r="40" fill="#EEF0F7"/>
<path d="M32 26.6667L28 32V50.6667C28 51.3739 28.281 52.0522 28.781 52.5523C29.2811 53.0524 29.9594 53.3334 30.6667 53.3334H49.3333C50.0406 53.3334 50.7189 53.0524 51.219 52.5523C51.719 52.0522 52 51.3739 52 50.6667V32L48 26.6667H32Z" stroke="#05001E" stroke-width="3" stroke-linecap="round" stroke-linejoin="round"/>
<path d="M45.3333 37.3333C45.3333 38.7478 44.7714 40.1044 43.7712 41.1045C42.771 42.1047 41.4145 42.6666 40 42.6666C38.5855 42.6666 37.2289 42.1047 36.2288 41.1045C35.2286 40.1044 34.6667 38.7478 34.6667 37.3333" stroke="#05001E" stroke-width="3" stroke-linecap="round" stroke-linejoin="round"/>
<path d="M28 32H52" stroke="#05001E" stroke-width="3" stroke-linecap="round" stroke-linejoin="round"/>
</svg>
