<svg width="80" height="80" viewBox="0 0 80 80" fill="none" xmlns="http://www.w3.org/2000/svg">
<circle cx="40" cy="40" r="40" fill="#EEF0F7"/>
<path d="M28 48V40C28 36.8174 29.2643 33.7652 31.5147 31.5147C33.7652 29.2643 36.8174 28 40 28C43.1826 28 46.2348 29.2643 48.4853 31.5147C50.7357 33.7652 52 36.8174 52 40V48" stroke="#05001E" stroke-width="3" stroke-linecap="round" stroke-linejoin="round"/>
<path d="M52 49.3334C52 50.0406 51.719 50.7189 51.219 51.219C50.7189 51.7191 50.0406 52 49.3333 52H48C47.2928 52 46.6145 51.7191 46.1144 51.219C45.6143 50.7189 45.3333 50.0406 45.3333 49.3334V45.3334C45.3333 44.6261 45.6143 43.9478 46.1144 43.4477C46.6145 42.9476 47.2928 42.6667 48 42.6667H52V49.3334ZM28 49.3334C28 50.0406 28.281 50.7189 28.781 51.219C29.2811 51.7191 29.9594 52 30.6667 52H32C32.7072 52 33.3855 51.7191 33.8856 51.219C34.3857 50.7189 34.6667 50.0406 34.6667 49.3334V45.3334C34.6667 44.6261 34.3857 43.9478 33.8856 43.4477C33.3855 42.9476 32.7072 42.6667 32 42.6667H28V49.3334Z" stroke="#05001E" stroke-width="3" stroke-linecap="round" stroke-linejoin="round"/>
</svg>
